<svg width="32" height="32" viewBox="0 0 32 32" fill="none" xmlns="http://www.w3.org/2000/svg">
<g clip-path="url(#clip0_52_2)">
<rect width="32" height="32" fill="black"/>
<path fill-rule="evenodd" clip-rule="evenodd" d="M12.3816 7.89224C11.7047 8.82423 11.5571 9.86347 11.7377 10.4146C11.8309 10.6989 11.676 11.0049 11.3917 11.098C11.1074 11.1912 10.8014 11.0362 10.7083 10.752C10.3892 9.77816 10.6885 8.3799 11.5051 7.25563C12.3471 6.09626 13.7756 5.16663 15.803 5.16663C17.8631 5.16663 19.3988 6.01273 20.34 7.13463C21.2612 8.23276 21.6402 9.64063 21.286 10.7483C21.1948 11.0333 20.8899 11.1903 20.605 11.0992C20.3201 11.0081 20.163 10.7032 20.2541 10.4183C20.4653 9.75785 20.2627 8.72819 19.51 7.83087C18.7772 6.95731 17.5467 6.24996 15.803 6.24996C14.1444 6.24996 13.033 6.99535 12.3816 7.89224Z" fill="white" stroke="white" stroke-width="0.5"/>
<path fill-rule="evenodd" clip-rule="evenodd" d="M13.2917 6.25C13.5908 6.25 13.8333 6.49252 13.8333 6.79167V8.95833C13.8333 9.2575 13.5908 9.5 13.2917 9.5C12.9925 9.5 12.75 9.2575 12.75 8.95833V6.79167C12.75 6.49252 12.9925 6.25 13.2917 6.25Z" fill="white" stroke="white" stroke-width="0.5"/>
<path fill-rule="evenodd" clip-rule="evenodd" d="M16 5.16663C16.2992 5.16663 16.5417 5.40914 16.5417 5.70829V7.87496C16.5417 8.17411 16.2992 8.41663 16 8.41663C15.7008 8.41663 15.4583 8.17411 15.4583 7.87496V5.70829C15.4583 5.40914 15.7008 5.16663 16 5.16663Z" fill="white" stroke="white" stroke-width="0.5"/>
<path fill-rule="evenodd" clip-rule="evenodd" d="M12.8179 19.0486C12.6943 18.7953 12.4149 18.6583 12.1426 18.7253C9.21535 19.4446 6.25 20.9114 6.25 23.1179V25.75V26.8334H7.33333H24.6667H25.75V25.75V23.1179C25.75 20.9114 22.7846 19.4446 19.8574 18.7253C19.5851 18.6583 19.3057 18.7953 19.1821 19.0486H16.9807C16.4993 19.0488 16.2542 19.0488 16.0134 19.0488C15.7637 19.0487 15.5186 19.0487 15.0192 19.0488L12.8179 19.0486ZM16.9809 20.132C16.981 20.132 16.9808 20.132 16.9809 20.132C16.4965 20.1321 16.2524 20.1321 16.013 20.1321C15.7648 20.132 15.5213 20.132 15.0195 20.1321L12.8178 20.132L12.1411 20.1319L12.0164 19.8764C10.7585 20.2158 9.57193 20.6882 8.69628 21.2674C7.7085 21.9208 7.33333 22.5539 7.33333 23.1179V25.75H24.6667V23.1179C24.6667 22.5539 24.2915 21.9208 23.3037 21.2674C22.4281 20.6882 21.2415 20.2158 19.9836 19.8764L19.8589 20.132H19.1821H16.9809Z" fill="white"/>
<path d="M16.9809 20.132C16.9808 20.132 16.981 20.132 16.9809 20.132ZM16.9809 20.132C16.4965 20.1321 16.2524 20.1321 16.013 20.1321C15.7648 20.132 15.5213 20.132 15.0195 20.1321L12.8178 20.132L12.1411 20.1319L12.0164 19.8764C10.7585 20.2158 9.57193 20.6882 8.69628 21.2674C7.7085 21.9208 7.33333 22.5539 7.33333 23.1179V25.75H24.6667V23.1179C24.6667 22.5539 24.2915 21.9208 23.3037 21.2674C22.4281 20.6882 21.2415 20.2158 19.9836 19.8764L19.8589 20.132H19.1821H16.9809ZM12.8179 19.0486C12.6943 18.7953 12.4149 18.6583 12.1426 18.7253C9.21535 19.4446 6.25 20.9114 6.25 23.1179V25.75V26.8334H7.33333H24.6667H25.75V25.75V23.1179C25.75 20.9114 22.7846 19.4446 19.8574 18.7253C19.5851 18.6583 19.3057 18.7953 19.1821 19.0486H16.9807C16.4993 19.0488 16.2542 19.0488 16.0134 19.0488C15.7637 19.0487 15.5186 19.0487 15.0192 19.0488L12.8179 19.0486Z" stroke="white" stroke-width="0.5"/>
<path d="M11.6667 21.9583C11.6667 21.6591 11.9092 21.4166 12.2083 21.4166C12.5075 21.4166 12.75 21.6591 12.75 21.9583V25.75C12.75 26.0491 12.5075 26.2916 12.2083 26.2916C11.9092 26.2916 11.6667 26.0491 11.6667 25.75V21.9583Z" fill="white" stroke="white" stroke-width="0.5"/>
<path d="M19.25 21.9583C19.25 21.6591 19.4925 21.4166 19.7917 21.4166C20.0908 21.4166 20.3333 21.6591 20.3333 21.9583V25.75C20.3333 26.0491 20.0908 26.2916 19.7917 26.2916C19.4925 26.2916 19.25 26.0491 19.25 25.75V21.9583Z" fill="white" stroke="white" stroke-width="0.5"/>
<path fill-rule="evenodd" clip-rule="evenodd" d="M18.7083 6.25C19.0075 6.25 19.25 6.49252 19.25 6.79167V8.95833C19.25 9.2575 19.0075 9.5 18.7083 9.5C18.4092 9.5 18.1667 9.2575 18.1667 8.95833V6.79167C18.1667 6.49252 18.4092 6.25 18.7083 6.25Z" fill="white" stroke="white" stroke-width="0.5"/>
<path fill-rule="evenodd" clip-rule="evenodd" d="M9.80788 11.539C9.7119 10.8566 10.1146 10.2151 10.7652 9.63684L11.4849 10.4465C10.9167 10.9516 10.8623 11.258 10.8807 11.3881C10.8998 11.5244 11.0365 11.7493 11.5226 11.9962C12.473 12.479 14.1965 12.75 16 12.75C17.8035 12.75 19.527 12.479 20.4774 11.9962C20.9636 11.7493 21.1002 11.5244 21.1194 11.3881C21.1377 11.258 21.0833 10.9516 20.5152 10.4465L21.2349 9.63684C21.8854 10.2151 22.2882 10.8566 22.1922 11.539C22.0971 12.2152 21.5482 12.6674 20.9679 12.9621C19.7855 13.5627 17.8528 13.8333 16 13.8333C14.1472 13.8333 12.2145 13.5627 11.032 12.9621C10.4518 12.6674 9.90294 12.2152 9.80788 11.539Z" fill="white" stroke="white" stroke-width="0.5"/>
<path fill-rule="evenodd" clip-rule="evenodd" d="M12.2083 12.75C12.2083 14.8441 13.9059 16.5417 16 16.5417C18.0941 16.5417 19.7917 14.8441 19.7917 12.75H20.875C20.875 15.4424 18.6924 17.625 16 17.625C13.3076 17.625 11.125 15.4424 11.125 12.75H12.2083Z" fill="white" stroke="white" stroke-width="0.5"/>
</g>
<defs>
<clipPath id="clip0_52_2">
<rect width="32" height="32" fill="white"/>
</clipPath>
</defs>
</svg>
