<svg width="65" height="65" viewBox="0 0 65 65" fill="none" xmlns="http://www.w3.org/2000/svg">
<path fill-rule="evenodd" clip-rule="evenodd" d="M23.454 12.2307C21.7618 14.5607 21.3928 17.1588 21.8443 18.5366C22.0772 19.2473 21.6899 20.0123 20.9791 20.2452C20.2685 20.4781 19.5035 20.0907 19.2707 19.38C18.473 16.9455 19.2213 13.4498 21.2627 10.6392C23.3678 7.74073 26.9391 5.41666 32.0076 5.41666C37.1578 5.41666 40.9971 7.53191 43.35 10.3367C45.653 13.082 46.6005 16.6017 45.7149 19.3708C45.4871 20.0832 44.7249 20.4759 44.0126 20.2482C43.3003 20.0203 42.9074 19.2581 43.1353 18.5458C43.6633 16.8947 43.1569 14.3206 41.275 12.0773C39.4431 9.89335 36.3668 8.12499 32.0076 8.12499C27.8609 8.12499 25.0825 9.98847 23.454 12.2307Z" fill="black"/>
<path fill-rule="evenodd" clip-rule="evenodd" d="M25.7292 8.125C26.4771 8.125 27.0833 8.73129 27.0833 9.47917V14.8958C27.0833 15.6437 26.4771 16.25 25.7292 16.25C24.9813 16.25 24.375 15.6437 24.375 14.8958V9.47917C24.375 8.73129 24.9813 8.125 25.7292 8.125Z" fill="black"/>
<path fill-rule="evenodd" clip-rule="evenodd" d="M32.5 5.41666C33.2479 5.41666 33.8541 6.02294 33.8541 6.77082V12.1875C33.8541 12.9354 33.2479 13.5417 32.5 13.5417C31.7521 13.5417 31.1458 12.9354 31.1458 12.1875V6.77082C31.1458 6.02294 31.7521 5.41666 32.5 5.41666Z" fill="black"/>
<path fill-rule="evenodd" clip-rule="evenodd" d="M24.5448 40.1215C24.2357 39.488 23.5373 39.1457 22.8564 39.3131C15.5384 41.1114 8.125 44.7784 8.125 50.2947V56.875V59.5833H10.8333H54.1667H56.875V56.875V50.2947C56.875 44.7784 49.4616 41.1114 42.1436 39.3131C41.4627 39.1457 40.7643 39.488 40.4552 40.1215H34.9517C33.7483 40.1218 33.1355 40.1218 32.5336 40.1218C31.9092 40.1217 31.2964 40.1217 30.048 40.1219L24.5448 40.1215ZM34.9523 42.8299C34.9524 42.8299 34.952 42.8299 34.9523 42.8299C33.7412 42.8301 33.131 42.8301 32.5325 42.8301C31.912 42.83 31.3032 42.83 30.0487 42.8303L24.5445 42.8299L22.8526 42.8297L22.5409 42.191C19.3961 43.0393 16.4298 44.2203 14.2407 45.6685C11.7713 47.302 10.8333 48.8847 10.8333 50.2947V56.875H54.1667V50.2947C54.1667 48.8847 53.2288 47.302 50.7593 45.6685C48.5702 44.2203 45.6039 43.0393 42.4591 42.191L42.1474 42.8299H40.4552H34.9523Z" fill="black"/>
<path d="M21.6667 47.3958C21.6667 46.6479 22.2729 46.0417 23.0209 46.0417C23.7688 46.0417 24.375 46.6479 24.375 47.3958V56.875C24.375 57.6229 23.7688 58.2292 23.0209 58.2292C22.2729 58.2292 21.6667 57.6229 21.6667 56.875V47.3958Z" fill="black"/>
<path d="M40.625 47.3958C40.625 46.6479 41.2313 46.0417 41.9792 46.0417C42.7271 46.0417 43.3333 46.6479 43.3333 47.3958V56.875C43.3333 57.6229 42.7271 58.2292 41.9792 58.2292C41.2313 58.2292 40.625 57.6229 40.625 56.875V47.3958Z" fill="black"/>
<path fill-rule="evenodd" clip-rule="evenodd" d="M39.2709 8.125C40.0188 8.125 40.625 8.73129 40.625 9.47917V14.8958C40.625 15.6437 40.0188 16.25 39.2709 16.25C38.5229 16.25 37.9167 15.6437 37.9167 14.8958V9.47917C37.9167 8.73129 38.5229 8.125 39.2709 8.125Z" fill="black"/>
<path fill-rule="evenodd" clip-rule="evenodd" d="M17.0197 21.3474C16.7798 19.6414 17.7864 18.0376 19.4129 16.5921L21.2122 18.6163C19.7917 19.8789 19.6559 20.6451 19.7016 20.9702C19.7496 21.3111 20.0912 21.8732 21.3066 22.4906C23.6825 23.6974 27.9913 24.375 32.5 24.375C37.0087 24.375 41.3175 23.6974 43.6934 22.4906C44.9089 21.8732 45.2506 21.3111 45.2985 20.9702C45.3441 20.6451 45.2083 19.8789 43.7879 18.6163L45.5872 16.5921C47.2136 18.0376 48.2204 19.6414 47.9804 21.3474C47.7426 23.0379 46.3705 24.1685 44.9199 24.9053C41.9637 26.4068 37.1319 27.0833 32.5 27.0833C27.8681 27.0833 23.0363 26.4068 20.0801 24.9053C18.6296 24.1685 17.2574 23.0379 17.0197 21.3474Z" fill="black"/>
<path fill-rule="evenodd" clip-rule="evenodd" d="M23.0208 24.375C23.0208 29.6102 27.2648 33.8542 32.5 33.8542C37.7352 33.8542 41.9792 29.6102 41.9792 24.375H44.6875C44.6875 31.106 39.231 36.5625 32.5 36.5625C25.769 36.5625 20.3125 31.106 20.3125 24.375H23.0208Z" fill="black"/>
</svg>
