<svg width="600" height="116" viewBox="0 0 600 116" fill="none" xmlns="http://www.w3.org/2000/svg">
<path d="M27.9 15.9C27.9 17.7667 27.45 19.5167 26.55 21.15C25.6833 22.7833 24.3 24.1 22.4 25.1C20.5333 26.1 18.1667 26.6 15.3 26.6H9.45V40H2.45V5.1H15.3C18 5.1 20.3 5.56667 22.2 6.5C24.1 7.43333 25.5167 8.71667 26.45 10.35C27.4167 11.9833 27.9 13.8333 27.9 15.9ZM15 20.95C16.9333 20.95 18.3667 20.5167 19.3 19.65C20.2333 18.75 20.7 17.5 20.7 15.9C20.7 12.5 18.8 10.8 15 10.8H9.45V20.95H15ZM33.5699 26.05C33.5699 23.25 34.1199 20.7667 35.2199 18.6C36.3533 16.4333 37.8699 14.7667 39.7699 13.6C41.7033 12.4333 43.8533 11.85 46.2199 11.85C48.2866 11.85 50.0866 12.2667 51.6199 13.1C53.1866 13.9333 54.4366 14.9833 55.3699 16.25V12.3H62.4199V40H55.3699V35.95C54.4699 37.25 53.2199 38.3333 51.6199 39.2C50.0533 40.0333 48.2366 40.45 46.1699 40.45C43.8366 40.45 41.7033 39.85 39.7699 38.65C37.8699 37.45 36.3533 35.7667 35.2199 33.6C34.1199 31.4 33.5699 28.8833 33.5699 26.05ZM55.3699 26.15C55.3699 24.45 55.0366 23 54.3699 21.8C53.7033 20.5667 52.8033 19.6333 51.6699 19C50.5366 18.3333 49.3199 18 48.0199 18C46.7199 18 45.5199 18.3167 44.4199 18.95C43.3199 19.5833 42.4199 20.5167 41.7199 21.75C41.0533 22.95 40.7199 24.3833 40.7199 26.05C40.7199 27.7167 41.0533 29.1833 41.7199 30.45C42.4199 31.6833 43.3199 32.6333 44.4199 33.3C45.5533 33.9667 46.7533 34.3 48.0199 34.3C49.3199 34.3 50.5366 33.9833 51.6699 33.35C52.8033 32.6833 53.7033 31.75 54.3699 30.55C55.0366 29.3167 55.3699 27.85 55.3699 26.15ZM78.7566 16.6C79.6566 15.1333 80.8233 13.9833 82.2566 13.15C83.7233 12.3167 85.39 11.9 87.2566 11.9V19.25H85.4066C83.2066 19.25 81.54 19.7667 80.4066 20.8C79.3066 21.8333 78.7566 23.6333 78.7566 26.2V40H71.7566V12.3H78.7566V16.6ZM92.6715 26.1C92.6715 23.3333 93.2382 20.8833 94.3715 18.75C95.5382 16.5833 97.1048 14.9 99.0715 13.7C101.038 12.5 103.205 11.9 105.571 11.9C107.538 11.9 109.271 12.2833 110.771 13.05C112.305 13.7833 113.538 14.7333 114.471 15.9V12.3H121.521V53.2H114.471V36.2C113.538 37.4 112.288 38.4 110.721 39.2C109.155 40 107.388 40.4 105.421 40.4C103.088 40.4 100.938 39.8 98.9715 38.6C97.0382 37.3667 95.5048 35.6667 94.3715 33.5C93.2382 31.3333 92.6715 28.8667 92.6715 26.1ZM114.471 26.15C114.471 24.45 114.121 22.9833 113.421 21.75C112.721 20.5167 111.805 19.5833 110.671 18.95C109.571 18.3167 108.388 18 107.121 18C105.888 18 104.705 18.3167 103.571 18.95C102.471 19.5833 101.571 20.5167 100.871 21.75C100.171 22.95 99.8215 24.4 99.8215 26.1C99.8215 27.8 100.171 29.2833 100.871 30.55C101.571 31.7833 102.471 32.7167 103.571 33.35C104.705 33.9833 105.888 34.3 107.121 34.3C108.388 34.3 109.571 33.9833 110.671 33.35C111.805 32.7167 112.721 31.7833 113.421 30.55C114.121 29.3167 114.471 27.85 114.471 26.15ZM157.008 12.3V40H149.958V36.5C149.058 37.7 147.875 38.65 146.408 39.35C144.975 40.0167 143.408 40.35 141.708 40.35C139.542 40.35 137.625 39.9 135.958 39C134.292 38.0667 132.975 36.7167 132.008 34.95C131.075 33.15 130.608 31.0167 130.608 28.55V12.3H137.608V27.55C137.608 29.75 138.158 31.45 139.258 32.65C140.358 33.8167 141.858 34.4 143.758 34.4C145.692 34.4 147.208 33.8167 148.308 32.65C149.408 31.45 149.958 29.75 149.958 27.55V12.3H157.008ZM192.165 25.55C192.165 26.55 192.098 27.45 191.965 28.25H171.715C171.882 30.25 172.582 31.8167 173.815 32.95C175.048 34.0833 176.565 34.65 178.365 34.65C180.965 34.65 182.815 33.5333 183.915 31.3H191.465C190.665 33.9667 189.132 36.1667 186.865 37.9C184.598 39.6 181.815 40.45 178.515 40.45C175.848 40.45 173.448 39.8667 171.315 38.7C169.215 37.5 167.565 35.8167 166.365 33.65C165.198 31.4833 164.615 28.9833 164.615 26.15C164.615 23.2833 165.198 20.7667 166.365 18.6C167.532 16.4333 169.165 14.7667 171.265 13.6C173.365 12.4333 175.782 11.85 178.515 11.85C181.148 11.85 183.498 12.4167 185.565 13.55C187.665 14.6833 189.282 16.3 190.415 18.4C191.582 20.4667 192.165 22.85 192.165 25.55ZM184.915 23.55C184.882 21.75 184.232 20.3167 182.965 19.25C181.698 18.15 180.148 17.6 178.315 17.6C176.582 17.6 175.115 18.1333 173.915 19.2C172.748 20.2333 172.032 21.6833 171.765 23.55H184.915ZM210.374 40.45C208.108 40.45 206.074 40.05 204.274 39.25C202.474 38.4167 201.041 37.3 199.974 35.9C198.941 34.5 198.374 32.95 198.274 31.25H205.324C205.458 32.3167 205.974 33.2 206.874 33.9C207.808 34.6 208.958 34.95 210.324 34.95C211.658 34.95 212.691 34.6833 213.424 34.15C214.191 33.6167 214.574 32.9333 214.574 32.1C214.574 31.2 214.108 30.5333 213.174 30.1C212.274 29.6333 210.824 29.1333 208.824 28.6C206.758 28.1 205.058 27.5833 203.724 27.05C202.424 26.5167 201.291 25.7 200.324 24.6C199.391 23.5 198.924 22.0167 198.924 20.15C198.924 18.6167 199.358 17.2167 200.224 15.95C201.124 14.6833 202.391 13.6833 204.024 12.95C205.691 12.2167 207.641 11.85 209.874 11.85C213.174 11.85 215.808 12.6833 217.774 14.35C219.741 15.9833 220.824 18.2 221.024 21H214.324C214.224 19.9 213.758 19.0333 212.924 18.4C212.124 17.7333 211.041 17.4 209.674 17.4C208.408 17.4 207.424 17.6333 206.724 18.1C206.058 18.5667 205.724 19.2167 205.724 20.05C205.724 20.9833 206.191 21.7 207.124 22.2C208.058 22.6667 209.508 23.15 211.474 23.65C213.474 24.15 215.124 24.6667 216.424 25.2C217.724 25.7333 218.841 26.5667 219.774 27.7C220.741 28.8 221.241 30.2667 221.274 32.1C221.274 33.7 220.824 35.1333 219.924 36.4C219.058 37.6667 217.791 38.6667 216.124 39.4C214.491 40.1 212.574 40.45 210.374 40.45ZM250.934 10.75V19.5H262.684V25.05H250.934V34.3H264.184V40H243.934V5.05H264.184V10.75H250.934ZM307.446 11.9C310.846 11.9 313.579 12.95 315.646 15.05C317.746 17.1167 318.796 20.0167 318.796 23.75V40H311.796V24.7C311.796 22.5333 311.246 20.8833 310.146 19.75C309.046 18.5833 307.546 18 305.646 18C303.746 18 302.229 18.5833 301.096 19.75C299.996 20.8833 299.446 22.5333 299.446 24.7V40H292.446V24.7C292.446 22.5333 291.896 20.8833 290.796 19.75C289.696 18.5833 288.196 18 286.296 18C284.362 18 282.829 18.5833 281.696 19.75C280.596 20.8833 280.046 22.5333 280.046 24.7V40H273.046V12.3H280.046V15.65C280.946 14.4833 282.096 13.5667 283.496 12.9C284.929 12.2333 286.496 11.9 288.196 11.9C290.362 11.9 292.296 12.3667 293.996 13.3C295.696 14.2 297.012 15.5 297.946 17.2C298.846 15.6 300.146 14.3167 301.846 13.35C303.579 12.3833 305.446 11.9 307.446 11.9ZM334.938 16.3C335.838 15.0333 337.072 13.9833 338.638 13.15C340.238 12.2833 342.055 11.85 344.088 11.85C346.455 11.85 348.588 12.4333 350.488 13.6C352.422 14.7667 353.938 16.4333 355.038 18.6C356.172 20.7333 356.738 23.2167 356.738 26.05C356.738 28.8833 356.172 31.4 355.038 33.6C353.938 35.7667 352.422 37.45 350.488 38.65C348.588 39.85 346.455 40.45 344.088 40.45C342.055 40.45 340.255 40.0333 338.688 39.2C337.155 38.3667 335.905 37.3167 334.938 36.05V53.2H327.938V12.3H334.938V16.3ZM349.588 26.05C349.588 24.3833 349.238 22.95 348.538 21.75C347.872 20.5167 346.972 19.5833 345.838 18.95C344.738 18.3167 343.538 18 342.238 18C340.972 18 339.772 18.3333 338.638 19C337.538 19.6333 336.638 20.5667 335.938 21.8C335.272 23.0333 334.938 24.4833 334.938 26.15C334.938 27.8167 335.272 29.2667 335.938 30.5C336.638 31.7333 337.538 32.6833 338.638 33.35C339.772 33.9833 340.972 34.3 342.238 34.3C343.538 34.3 344.738 33.9667 345.838 33.3C346.972 32.6333 347.872 31.6833 348.538 30.45C349.238 29.2167 349.588 27.75 349.588 26.05ZM371.325 16.6C372.225 15.1333 373.392 13.9833 374.825 13.15C376.292 12.3167 377.958 11.9 379.825 11.9V19.25H377.975C375.775 19.25 374.108 19.7667 372.975 20.8C371.875 21.8333 371.325 23.6333 371.325 26.2V40H364.325V12.3H371.325V16.6ZM412.79 25.55C412.79 26.55 412.723 27.45 412.59 28.25H392.34C392.507 30.25 393.207 31.8167 394.44 32.95C395.673 34.0833 397.19 34.65 398.99 34.65C401.59 34.65 403.44 33.5333 404.54 31.3H412.09C411.29 33.9667 409.757 36.1667 407.49 37.9C405.223 39.6 402.44 40.45 399.14 40.45C396.473 40.45 394.073 39.8667 391.94 38.7C389.84 37.5 388.19 35.8167 386.99 33.65C385.823 31.4833 385.24 28.9833 385.24 26.15C385.24 23.2833 385.823 20.7667 386.99 18.6C388.157 16.4333 389.79 14.7667 391.89 13.6C393.99 12.4333 396.407 11.85 399.14 11.85C401.773 11.85 404.123 12.4167 406.19 13.55C408.29 14.6833 409.907 16.3 411.04 18.4C412.207 20.4667 412.79 22.85 412.79 25.55ZM405.54 23.55C405.507 21.75 404.857 20.3167 403.59 19.25C402.323 18.15 400.773 17.6 398.94 17.6C397.207 17.6 395.74 18.1333 394.54 19.2C393.373 20.2333 392.657 21.6833 392.39 23.55H405.54ZM430.999 40.45C428.733 40.45 426.699 40.05 424.899 39.25C423.099 38.4167 421.666 37.3 420.599 35.9C419.566 34.5 418.999 32.95 418.899 31.25H425.949C426.083 32.3167 426.599 33.2 427.499 33.9C428.433 34.6 429.583 34.95 430.949 34.95C432.283 34.95 433.316 34.6833 434.049 34.15C434.816 33.6167 435.199 32.9333 435.199 32.1C435.199 31.2 434.733 30.5333 433.799 30.1C432.899 29.6333 431.449 29.1333 429.449 28.6C427.383 28.1 425.683 27.5833 424.349 27.05C423.049 26.5167 421.916 25.7 420.949 24.6C420.016 23.5 419.549 22.0167 419.549 20.15C419.549 18.6167 419.983 17.2167 420.849 15.95C421.749 14.6833 423.016 13.6833 424.649 12.95C426.316 12.2167 428.266 11.85 430.499 11.85C433.799 11.85 436.433 12.6833 438.399 14.35C440.366 15.9833 441.449 18.2 441.649 21H434.949C434.849 19.9 434.383 19.0333 433.549 18.4C432.749 17.7333 431.666 17.4 430.299 17.4C429.033 17.4 428.049 17.6333 427.349 18.1C426.683 18.5667 426.349 19.2167 426.349 20.05C426.349 20.9833 426.816 21.7 427.749 22.2C428.683 22.6667 430.133 23.15 432.099 23.65C434.099 24.15 435.749 24.6667 437.049 25.2C438.349 25.7333 439.466 26.5667 440.399 27.7C441.366 28.8 441.866 30.2667 441.899 32.1C441.899 33.7 441.449 35.1333 440.549 36.4C439.683 37.6667 438.416 38.6667 436.749 39.4C435.116 40.1 433.199 40.45 430.999 40.45ZM448.345 26.05C448.345 23.25 448.895 20.7667 449.995 18.6C451.129 16.4333 452.645 14.7667 454.545 13.6C456.479 12.4333 458.629 11.85 460.995 11.85C463.062 11.85 464.862 12.2667 466.395 13.1C467.962 13.9333 469.212 14.9833 470.145 16.25V12.3H477.195V40H470.145V35.95C469.245 37.25 467.995 38.3333 466.395 39.2C464.829 40.0333 463.012 40.45 460.945 40.45C458.612 40.45 456.479 39.85 454.545 38.65C452.645 37.45 451.129 35.7667 449.995 33.6C448.895 31.4 448.345 28.8833 448.345 26.05ZM470.145 26.15C470.145 24.45 469.812 23 469.145 21.8C468.479 20.5667 467.579 19.6333 466.445 19C465.312 18.3333 464.095 18 462.795 18C461.495 18 460.295 18.3167 459.195 18.95C458.095 19.5833 457.195 20.5167 456.495 21.75C455.829 22.95 455.495 24.3833 455.495 26.05C455.495 27.7167 455.829 29.1833 456.495 30.45C457.195 31.6833 458.095 32.6333 459.195 33.3C460.329 33.9667 461.529 34.3 462.795 34.3C464.095 34.3 465.312 33.9833 466.445 33.35C467.579 32.6833 468.479 31.75 469.145 30.55C469.812 29.3167 470.145 27.85 470.145 26.15ZM493.532 16.6C494.432 15.1333 495.599 13.9833 497.032 13.15C498.499 12.3167 500.165 11.9 502.032 11.9V19.25H500.182C497.982 19.25 496.315 19.7667 495.182 20.8C494.082 21.8333 493.532 23.6333 493.532 26.2V40H486.532V12.3H493.532V16.6ZM512.797 9C511.564 9 510.53 8.61667 509.697 7.85C508.897 7.05 508.497 6.06666 508.497 4.9C508.497 3.73333 508.897 2.76666 509.697 2C510.53 1.2 511.564 0.799998 512.797 0.799998C514.03 0.799998 515.047 1.2 515.847 2C516.68 2.76666 517.097 3.73333 517.097 4.9C517.097 6.06666 516.68 7.05 515.847 7.85C515.047 8.61667 514.03 9 512.797 9ZM516.247 12.3V40H509.247V12.3H516.247ZM523.863 26.05C523.863 23.25 524.413 20.7667 525.513 18.6C526.646 16.4333 528.163 14.7667 530.063 13.6C531.996 12.4333 534.146 11.85 536.513 11.85C538.58 11.85 540.38 12.2667 541.913 13.1C543.48 13.9333 544.73 14.9833 545.663 16.25V12.3H552.713V40H545.663V35.95C544.763 37.25 543.513 38.3333 541.913 39.2C540.346 40.0333 538.53 40.45 536.463 40.45C534.13 40.45 531.996 39.85 530.063 38.65C528.163 37.45 526.646 35.7667 525.513 33.6C524.413 31.4 523.863 28.8833 523.863 26.05ZM545.663 26.15C545.663 24.45 545.33 23 544.663 21.8C543.996 20.5667 543.096 19.6333 541.963 19C540.83 18.3333 539.613 18 538.313 18C537.013 18 535.813 18.3167 534.713 18.95C533.613 19.5833 532.713 20.5167 532.013 21.75C531.346 22.95 531.013 24.3833 531.013 26.05C531.013 27.7167 531.346 29.1833 532.013 30.45C532.713 31.6833 533.613 32.6333 534.713 33.3C535.846 33.9667 537.046 34.3 538.313 34.3C539.613 34.3 540.83 33.9833 541.963 33.35C543.096 32.6833 543.996 31.75 544.663 30.55C545.33 29.3167 545.663 27.85 545.663 26.15ZM565.6 9C564.366 9 563.333 8.61667 562.5 7.85C561.7 7.05 561.3 6.06666 561.3 4.9C561.3 3.73333 561.7 2.76666 562.5 2C563.333 1.2 564.366 0.799998 565.6 0.799998C566.833 0.799998 567.85 1.2 568.65 2C569.483 2.76666 569.9 3.73333 569.9 4.9C569.9 6.06666 569.483 7.05 568.65 7.85C567.85 8.61667 566.833 9 565.6 9ZM569.05 12.3V40H562.05V12.3H569.05ZM589.066 40.45C586.799 40.45 584.766 40.05 582.966 39.25C581.166 38.4167 579.732 37.3 578.666 35.9C577.632 34.5 577.066 32.95 576.966 31.25H584.016C584.149 32.3167 584.666 33.2 585.566 33.9C586.499 34.6 587.649 34.95 589.016 34.95C590.349 34.95 591.382 34.6833 592.116 34.15C592.882 33.6167 593.266 32.9333 593.266 32.1C593.266 31.2 592.799 30.5333 591.866 30.1C590.966 29.6333 589.516 29.1333 587.516 28.6C585.449 28.1 583.749 27.5833 582.416 27.05C581.116 26.5167 579.982 25.7 579.016 24.6C578.082 23.5 577.616 22.0167 577.616 20.15C577.616 18.6167 578.049 17.2167 578.916 15.95C579.816 14.6833 581.082 13.6833 582.716 12.95C584.382 12.2167 586.332 11.85 588.566 11.85C591.866 11.85 594.499 12.6833 596.466 14.35C598.432 15.9833 599.516 18.2 599.716 21H593.016C592.916 19.9 592.449 19.0333 591.616 18.4C590.816 17.7333 589.732 17.4 588.366 17.4C587.099 17.4 586.116 17.6333 585.416 18.1C584.749 18.5667 584.416 19.2167 584.416 20.05C584.416 20.9833 584.882 21.7 585.816 22.2C586.749 22.6667 588.199 23.15 590.166 23.65C592.166 24.15 593.816 24.6667 595.116 25.2C596.416 25.7333 597.532 26.5667 598.466 27.7C599.432 28.8 599.932 30.2667 599.966 32.1C599.966 33.7 599.516 35.1333 598.616 36.4C597.749 37.6667 596.482 38.6667 594.816 39.4C593.182 40.1 591.266 40.45 589.066 40.45ZM29.3 115L25.5 111.25C22.2667 114.15 18.3167 115.6 13.65 115.6C11.0833 115.6 8.81667 115.167 6.85 114.3C4.91667 113.4 3.41667 112.15 2.35 110.55C1.28333 108.917 0.75 107.033 0.75 104.9C0.75 102.6 1.4 100.533 2.7 98.7C4 96.8667 5.91667 95.3833 8.45 94.25C7.55 93.15 6.9 92.1 6.5 91.1C6.1 90.0667 5.9 88.9667 5.9 87.8C5.9 86.2 6.31667 84.7667 7.15 83.5C7.98333 82.2 9.16667 81.1833 10.7 80.45C12.2667 79.7167 14.0833 79.35 16.15 79.35C18.25 79.35 20.05 79.75 21.55 80.55C23.05 81.35 24.1667 82.4167 24.9 83.75C25.6333 85.0833 25.95 86.5667 25.85 88.2H19.05C19.0833 87.1 18.8167 86.2667 18.25 85.7C17.6833 85.1 16.9167 84.8 15.95 84.8C15.0167 84.8 14.2333 85.0833 13.6 85.65C13 86.1833 12.7 86.8833 12.7 87.75C12.7 88.5833 12.95 89.4167 13.45 90.25C13.95 91.05 14.7667 92.05 15.9 93.25L24.7 101.95C24.7667 101.883 24.8167 101.817 24.85 101.75C24.8833 101.683 24.9167 101.617 24.95 101.55L27.8 96.8H35.1L31.6 102.95C30.9333 104.25 30.2167 105.483 29.45 106.65L37.9 115H29.3ZM13.85 109.8C16.5833 109.8 19 108.833 21.1 106.9L12.5 98.4C9.26667 99.8333 7.65 101.867 7.65 104.5C7.65 106 8.21667 107.267 9.35 108.3C10.4833 109.3 11.9833 109.8 13.85 109.8ZM62.7801 80.1V115H55.7801V80.1H62.7801ZM87.5461 86.9C90.8461 86.9 93.5128 87.95 95.5461 90.05C97.5794 92.1167 98.5961 95.0167 98.5961 98.75V115H91.5961V99.7C91.5961 97.5 91.0461 95.8167 89.9461 94.65C88.8461 93.45 87.3461 92.85 85.4461 92.85C83.5128 92.85 81.9794 93.45 80.8461 94.65C79.7461 95.8167 79.1961 97.5 79.1961 99.7V115H72.1961V87.3H79.1961V90.75C80.1294 89.55 81.3128 88.6167 82.7461 87.95C84.2128 87.25 85.8128 86.9 87.5461 86.9ZM105.953 101.05C105.953 98.25 106.503 95.7667 107.603 93.6C108.736 91.4333 110.269 89.7667 112.203 88.6C114.136 87.4333 116.286 86.85 118.653 86.85C120.453 86.85 122.169 87.25 123.803 88.05C125.436 88.8167 126.736 89.85 127.703 91.15V78H134.803V115H127.703V110.9C126.836 112.267 125.619 113.367 124.053 114.2C122.486 115.033 120.669 115.45 118.603 115.45C116.269 115.45 114.136 114.85 112.203 113.65C110.269 112.45 108.736 110.767 107.603 108.6C106.503 106.4 105.953 103.883 105.953 101.05ZM127.753 101.15C127.753 99.45 127.419 98 126.753 96.8C126.086 95.5667 125.186 94.6333 124.053 94C122.919 93.3333 121.703 93 120.403 93C119.103 93 117.903 93.3167 116.803 93.95C115.703 94.5833 114.803 95.5167 114.103 96.75C113.436 97.95 113.103 99.3833 113.103 101.05C113.103 102.717 113.436 104.183 114.103 105.45C114.803 106.683 115.703 107.633 116.803 108.3C117.936 108.967 119.136 109.3 120.403 109.3C121.703 109.3 122.919 108.983 124.053 108.35C125.186 107.683 126.086 106.75 126.753 105.55C127.419 104.317 127.753 102.85 127.753 101.15ZM170.289 87.3V115H163.239V111.5C162.339 112.7 161.156 113.65 159.689 114.35C158.256 115.017 156.689 115.35 154.989 115.35C152.823 115.35 150.906 114.9 149.239 114C147.573 113.067 146.256 111.717 145.289 109.95C144.356 108.15 143.889 106.017 143.889 103.55V87.3H150.889V102.55C150.889 104.75 151.439 106.45 152.539 107.65C153.639 108.817 155.139 109.4 157.039 109.4C158.973 109.4 160.489 108.817 161.589 107.65C162.689 106.45 163.239 104.75 163.239 102.55V87.3H170.289ZM190.296 115.45C188.029 115.45 185.996 115.05 184.196 114.25C182.396 113.417 180.963 112.3 179.896 110.9C178.863 109.5 178.296 107.95 178.196 106.25H185.246C185.379 107.317 185.896 108.2 186.796 108.9C187.729 109.6 188.879 109.95 190.246 109.95C191.579 109.95 192.613 109.683 193.346 109.15C194.113 108.617 194.496 107.933 194.496 107.1C194.496 106.2 194.029 105.533 193.096 105.1C192.196 104.633 190.746 104.133 188.746 103.6C186.679 103.1 184.979 102.583 183.646 102.05C182.346 101.517 181.213 100.7 180.246 99.6C179.313 98.5 178.846 97.0167 178.846 95.15C178.846 93.6167 179.279 92.2167 180.146 90.95C181.046 89.6833 182.313 88.6833 183.946 87.95C185.613 87.2167 187.563 86.85 189.796 86.85C193.096 86.85 195.729 87.6833 197.696 89.35C199.663 90.9833 200.746 93.2 200.946 96H194.246C194.146 94.9 193.679 94.0333 192.846 93.4C192.046 92.7333 190.963 92.4 189.596 92.4C188.329 92.4 187.346 92.6333 186.646 93.1C185.979 93.5667 185.646 94.2167 185.646 95.05C185.646 95.9833 186.113 96.7 187.046 97.2C187.979 97.6667 189.429 98.15 191.396 98.65C193.396 99.15 195.046 99.6667 196.346 100.2C197.646 100.733 198.763 101.567 199.696 102.7C200.663 103.8 201.163 105.267 201.196 107.1C201.196 108.7 200.746 110.133 199.846 111.4C198.979 112.667 197.713 113.667 196.046 114.4C194.413 115.1 192.496 115.45 190.296 115.45ZM217.592 93.05V106.45C217.592 107.383 217.809 108.067 218.242 108.5C218.709 108.9 219.476 109.1 220.542 109.1H223.792V115H219.392C213.492 115 210.542 112.133 210.542 106.4V93.05H207.242V87.3H210.542V80.45H217.592V87.3H223.792V93.05H217.592ZM238.327 91.6C239.227 90.1333 240.394 88.9833 241.827 88.15C243.294 87.3167 244.96 86.9 246.827 86.9V94.25H244.977C242.777 94.25 241.11 94.7667 239.977 95.8C238.877 96.8333 238.327 98.6333 238.327 101.2V115H231.327V87.3H238.327V91.6ZM257.592 84C256.358 84 255.325 83.6167 254.492 82.85C253.692 82.05 253.292 81.0667 253.292 79.9C253.292 78.7333 253.692 77.7667 254.492 77C255.325 76.2 256.358 75.8 257.592 75.8C258.825 75.8 259.842 76.2 260.642 77C261.475 77.7667 261.892 78.7333 261.892 79.9C261.892 81.0667 261.475 82.05 260.642 82.85C259.842 83.6167 258.825 84 257.592 84ZM261.042 87.3V115H254.042V87.3H261.042ZM268.658 101.05C268.658 98.25 269.208 95.7667 270.308 93.6C271.441 91.4333 272.958 89.7667 274.858 88.6C276.791 87.4333 278.941 86.85 281.308 86.85C283.374 86.85 285.174 87.2667 286.708 88.1C288.274 88.9333 289.524 89.9833 290.458 91.25V87.3H297.508V115H290.458V110.95C289.558 112.25 288.308 113.333 286.708 114.2C285.141 115.033 283.324 115.45 281.258 115.45C278.924 115.45 276.791 114.85 274.858 113.65C272.958 112.45 271.441 110.767 270.308 108.6C269.208 106.4 268.658 103.883 268.658 101.05ZM290.458 101.15C290.458 99.45 290.124 98 289.458 96.8C288.791 95.5667 287.891 94.6333 286.758 94C285.624 93.3333 284.408 93 283.108 93C281.808 93 280.608 93.3167 279.508 93.95C278.408 94.5833 277.508 95.5167 276.808 96.75C276.141 97.95 275.808 99.3833 275.808 101.05C275.808 102.717 276.141 104.183 276.808 105.45C277.508 106.683 278.408 107.633 279.508 108.3C280.641 108.967 281.841 109.3 283.108 109.3C284.408 109.3 285.624 108.983 286.758 108.35C287.891 107.683 288.791 106.75 289.458 105.55C290.124 104.317 290.458 102.85 290.458 101.15ZM310.395 84C309.161 84 308.128 83.6167 307.295 82.85C306.495 82.05 306.095 81.0667 306.095 79.9C306.095 78.7333 306.495 77.7667 307.295 77C308.128 76.2 309.161 75.8 310.395 75.8C311.628 75.8 312.645 76.2 313.445 77C314.278 77.7667 314.695 78.7333 314.695 79.9C314.695 81.0667 314.278 82.05 313.445 82.85C312.645 83.6167 311.628 84 310.395 84ZM313.845 87.3V115H306.845V87.3H313.845ZM333.861 115.45C331.594 115.45 329.561 115.05 327.761 114.25C325.961 113.417 324.527 112.3 323.461 110.9C322.427 109.5 321.861 107.95 321.761 106.25H328.811C328.944 107.317 329.461 108.2 330.361 108.9C331.294 109.6 332.444 109.95 333.811 109.95C335.144 109.95 336.177 109.683 336.911 109.15C337.677 108.617 338.061 107.933 338.061 107.1C338.061 106.2 337.594 105.533 336.661 105.1C335.761 104.633 334.311 104.133 332.311 103.6C330.244 103.1 328.544 102.583 327.211 102.05C325.911 101.517 324.777 100.7 323.811 99.6C322.877 98.5 322.411 97.0167 322.411 95.15C322.411 93.6167 322.844 92.2167 323.711 90.95C324.611 89.6833 325.877 88.6833 327.511 87.95C329.177 87.2167 331.127 86.85 333.361 86.85C336.661 86.85 339.294 87.6833 341.261 89.35C343.227 90.9833 344.311 93.2 344.511 96H337.811C337.711 94.9 337.244 94.0333 336.411 93.4C335.611 92.7333 334.527 92.4 333.161 92.4C331.894 92.4 330.911 92.6333 330.211 93.1C329.544 93.5667 329.211 94.2167 329.211 95.05C329.211 95.9833 329.677 96.7 330.611 97.2C331.544 97.6667 332.994 98.15 334.961 98.65C336.961 99.15 338.611 99.6667 339.911 100.2C341.211 100.733 342.327 101.567 343.261 102.7C344.227 103.8 344.727 105.267 344.761 107.1C344.761 108.7 344.311 110.133 343.411 111.4C342.544 112.667 341.277 113.667 339.611 114.4C337.977 115.1 336.061 115.45 333.861 115.45Z" fill="white"/>
</svg>
